<svg baseProfile="full" height="300px" version="1.1" viewBox="0 0 350 300" width="350px" xml:space="preserve" xmlns="http://www.w3.org/2000/svg" xmlns:rdkit="http://www.rdkit.org/xml" xmlns:xlink="http://www.w3.org/1999/xlink">
<!-- END OF HEADER -->
<rect height="300" style="opacity:1.0;fill:#FFFFFF;stroke:none" width="350" x="0" y="0"> </rect>
<path class="bond-0" d="M 86.19,218.216 L 87.6376,175.132" style="fill:none;fill-rule:evenodd;stroke:#000000;stroke-width:2.0px;stroke-linecap:butt;stroke-linejoin:miter;stroke-opacity:1"/>
<path class="bond-1" d="M 87.6376,175.132 L 51.0496,152.337" style="fill:none;fill-rule:evenodd;stroke:#000000;stroke-width:2.0px;stroke-linecap:butt;stroke-linejoin:miter;stroke-opacity:1"/>
<path class="bond-1" d="M 86.7086,164.395 L 61.0969,148.438" style="fill:none;fill-rule:evenodd;stroke:#000000;stroke-width:2.0px;stroke-linecap:butt;stroke-linejoin:miter;stroke-opacity:1"/>
<path class="bond-15" d="M 87.6376,175.132 L 125.673,154.844" style="fill:none;fill-rule:evenodd;stroke:#000000;stroke-width:2.0px;stroke-linecap:butt;stroke-linejoin:miter;stroke-opacity:1"/>
<path class="bond-2" d="M 51.0496,152.337 L 52.4972,109.253" style="fill:none;fill-rule:evenodd;stroke:#000000;stroke-width:2.0px;stroke-linecap:butt;stroke-linejoin:miter;stroke-opacity:1"/>
<path class="bond-3" d="M 52.4972,109.253 L 15.9091,86.457" style="fill:none;fill-rule:evenodd;stroke:#000000;stroke-width:2.0px;stroke-linecap:butt;stroke-linejoin:miter;stroke-opacity:1"/>
<path class="bond-4" d="M 52.4972,109.253 L 90.5328,88.9643" style="fill:none;fill-rule:evenodd;stroke:#000000;stroke-width:2.0px;stroke-linecap:butt;stroke-linejoin:miter;stroke-opacity:1"/>
<path class="bond-4" d="M 62.2602,113.817 L 88.8851,99.6147" style="fill:none;fill-rule:evenodd;stroke:#000000;stroke-width:2.0px;stroke-linecap:butt;stroke-linejoin:miter;stroke-opacity:1"/>
<path class="bond-5" d="M 90.5328,88.9643 L 127.121,111.76" style="fill:none;fill-rule:evenodd;stroke:#000000;stroke-width:2.0px;stroke-linecap:butt;stroke-linejoin:miter;stroke-opacity:1"/>
<path class="bond-6" d="M 127.121,111.76 L 165.157,91.4716" style="fill:none;fill-rule:evenodd;stroke:#000000;stroke-width:2.0px;stroke-linecap:butt;stroke-linejoin:miter;stroke-opacity:1"/>
<path class="bond-13" d="M 127.121,111.76 L 125.673,154.844" style="fill:none;fill-rule:evenodd;stroke:#000000;stroke-width:2.0px;stroke-linecap:butt;stroke-linejoin:miter;stroke-opacity:1"/>
<path class="bond-13" d="M 118.287,117.933 L 117.274,148.092" style="fill:none;fill-rule:evenodd;stroke:#000000;stroke-width:2.0px;stroke-linecap:butt;stroke-linejoin:miter;stroke-opacity:1"/>
<path class="bond-7" d="M 165.157,91.4716 L 180.597,101.091" style="fill:none;fill-rule:evenodd;stroke:#000000;stroke-width:2.0px;stroke-linecap:butt;stroke-linejoin:miter;stroke-opacity:1"/>
<path class="bond-7" d="M 180.597,101.091 L 196.037,110.711" style="fill:none;fill-rule:evenodd;stroke:#0000FF;stroke-width:2.0px;stroke-linecap:butt;stroke-linejoin:miter;stroke-opacity:1"/>
<path class="bond-8" d="M 207.452,111.952 L 224.572,105.009" style="fill:none;fill-rule:evenodd;stroke:#0000FF;stroke-width:2.0px;stroke-linecap:butt;stroke-linejoin:miter;stroke-opacity:1"/>
<path class="bond-8" d="M 224.572,105.009 L 241.693,98.0658" style="fill:none;fill-rule:evenodd;stroke:#000000;stroke-width:2.0px;stroke-linecap:butt;stroke-linejoin:miter;stroke-opacity:1"/>
<path class="bond-14" d="M 202.256,121.449 L 204.31,150.265" style="fill:none;fill-rule:evenodd;stroke:#0000FF;stroke-width:2.0px;stroke-linecap:butt;stroke-linejoin:miter;stroke-opacity:1"/>
<path class="bond-9" d="M 241.693,98.0658 L 269.446,131.052" style="fill:none;fill-rule:evenodd;stroke:#000000;stroke-width:2.0px;stroke-linecap:butt;stroke-linejoin:miter;stroke-opacity:1"/>
<path class="bond-9" d="M 239.258,108.564 L 258.685,131.655" style="fill:none;fill-rule:evenodd;stroke:#000000;stroke-width:2.0px;stroke-linecap:butt;stroke-linejoin:miter;stroke-opacity:1"/>
<path class="bond-10" d="M 269.446,131.052 L 288.092,129.724" style="fill:none;fill-rule:evenodd;stroke:#000000;stroke-width:2.0px;stroke-linecap:butt;stroke-linejoin:miter;stroke-opacity:1"/>
<path class="bond-10" d="M 288.092,129.724 L 306.737,128.395" style="fill:none;fill-rule:evenodd;stroke:#0000FF;stroke-width:2.0px;stroke-linecap:butt;stroke-linejoin:miter;stroke-opacity:1"/>
<path class="bond-11" d="M 269.446,131.052 L 246.65,167.64" style="fill:none;fill-rule:evenodd;stroke:#000000;stroke-width:2.0px;stroke-linecap:butt;stroke-linejoin:miter;stroke-opacity:1"/>
<path class="bond-12" d="M 246.65,167.64 L 228.583,163.161" style="fill:none;fill-rule:evenodd;stroke:#000000;stroke-width:2.0px;stroke-linecap:butt;stroke-linejoin:miter;stroke-opacity:1"/>
<path class="bond-12" d="M 228.583,163.161 L 210.516,158.682" style="fill:none;fill-rule:evenodd;stroke:#0000FF;stroke-width:2.0px;stroke-linecap:butt;stroke-linejoin:miter;stroke-opacity:1"/>
<path class="bond-12" d="M 243.305,157.928 L 230.658,154.793" style="fill:none;fill-rule:evenodd;stroke:#000000;stroke-width:2.0px;stroke-linecap:butt;stroke-linejoin:miter;stroke-opacity:1"/>
<path class="bond-12" d="M 230.658,154.793 L 218.011,151.657" style="fill:none;fill-rule:evenodd;stroke:#0000FF;stroke-width:2.0px;stroke-linecap:butt;stroke-linejoin:miter;stroke-opacity:1"/>
<path class="atom-8" d="M 199.046 108.163 L 203.046 114.629 Q 203.443 115.267, 204.081 116.423 Q 204.719 117.578, 204.754 117.647 L 204.754 108.163 L 206.374 108.163 L 206.374 120.371 L 204.702 120.371 L 200.408 113.302 Q 199.908 112.474, 199.374 111.526 Q 198.856 110.577, 198.701 110.284 L 198.701 120.371 L 197.115 120.371 L 197.115 108.163 L 199.046 108.163 " fill="#0000FF"/>
<path class="atom-11" d="M 309.746 121.884 L 313.747 128.35 Q 314.143 128.988, 314.781 130.144 Q 315.419 131.299, 315.454 131.368 L 315.454 121.884 L 317.075 121.884 L 317.075 134.092 L 315.402 134.092 L 311.109 127.023 Q 310.609 126.195, 310.074 125.247 Q 309.557 124.298, 309.402 124.005 L 309.402 134.092 L 307.815 134.092 L 307.815 121.884 L 309.746 121.884 " fill="#0000FF"/>
<path class="atom-11" d="M 318.541 121.884 L 320.196 121.884 L 320.196 127.074 L 326.438 127.074 L 326.438 121.884 L 328.093 121.884 L 328.093 134.092 L 326.438 134.092 L 326.438 128.454 L 320.196 128.454 L 320.196 134.092 L 318.541 134.092 L 318.541 121.884 " fill="#0000FF"/>
<path class="atom-11" d="M 328.685 133.664 Q 328.981 132.902, 329.687 132.481 Q 330.392 132.048, 331.371 132.048 Q 332.589 132.048, 333.272 132.708 Q 333.954 133.368, 333.954 134.54 Q 333.954 135.735, 333.067 136.851 Q 332.19 137.966, 330.369 139.286 L 334.091 139.286 L 334.091 140.197 L 328.662 140.197 L 328.662 139.434 Q 330.165 138.364, 331.052 137.568 Q 331.951 136.771, 332.384 136.054 Q 332.816 135.337, 332.816 134.597 Q 332.816 133.823, 332.429 133.391 Q 332.042 132.959, 331.371 132.959 Q 330.722 132.959, 330.29 133.22 Q 329.857 133.482, 329.55 134.062 L 328.685 133.664 " fill="#0000FF"/>
<path class="atom-13" d="M 202.11 151.162 L 206.11 157.629 Q 206.507 158.267, 207.145 159.422 Q 207.783 160.577, 207.817 160.646 L 207.817 151.162 L 209.438 151.162 L 209.438 163.371 L 207.766 163.371 L 203.472 156.301 Q 202.972 155.473, 202.437 154.525 Q 201.92 153.577, 201.765 153.283 L 201.765 163.371 L 200.179 163.371 L 200.179 151.162 L 202.11 151.162 " fill="#0000FF"/>
<path class="note" d="M 70.4297 216.113 Q 70.6539 215.535, 71.1884 215.216 Q 71.723 214.889, 72.4644 214.889 Q 73.387 214.889, 73.9043 215.389 Q 74.4216 215.889, 74.4216 216.777 Q 74.4216 217.682, 73.7491 218.527 Q 73.0852 219.372, 71.7057 220.372 L 74.525 220.372 L 74.525 221.062 L 70.4125 221.062 L 70.4125 220.484 Q 71.5506 219.674, 72.223 219.07 Q 72.9042 218.467, 73.2318 217.923 Q 73.5594 217.38, 73.5594 216.82 Q 73.5594 216.234, 73.2663 215.906 Q 72.9731 215.578, 72.4644 215.578 Q 71.973 215.578, 71.6454 215.777 Q 71.3178 215.975, 71.085 216.415 L 70.4297 216.113 " fill="#000000"/>
<path class="note" d="M 75.3268 220.372 L 76.6632 220.372 L 76.6632 215.811 L 75.1889 216.268 L 74.9906 215.759 L 76.8615 214.923 L 77.4736 215.027 L 77.4736 220.372 L 78.672 220.372 L 78.672 221.062 L 75.3268 221.062 L 75.3268 220.372 " fill="#000000"/>
<path class="note" d="M 79.2325 220.2 L 80.0946 220.2 L 80.0946 221.062 L 79.2325 221.062 L 79.2325 220.2 " fill="#000000"/>
<path class="note" d="M 80.8964 220.372 L 82.2328 220.372 L 82.2328 215.811 L 80.7585 216.268 L 80.5602 215.759 L 82.4311 214.923 L 83.0432 215.027 L 83.0432 220.372 L 84.2416 220.372 L 84.2416 221.062 L 80.8964 221.062 L 80.8964 220.372 " fill="#000000"/>
<path class="note" d="M 64.1311 184.292 L 65.4675 184.292 L 65.4675 179.731 L 63.9932 180.188 L 63.7949 179.679 L 65.6658 178.843 L 66.2779 178.947 L 66.2779 184.292 L 67.4763 184.292 L 67.4763 184.982 L 64.1311 184.982 L 64.1311 184.292 " fill="#000000"/>
<path class="note" d="M 70.7698 181.766 Q 71.3647 181.938, 71.6492 182.326 Q 71.9424 182.706, 71.9424 183.309 Q 71.9424 183.826, 71.6837 184.232 Q 71.4251 184.628, 70.9509 184.852 Q 70.4767 185.068, 69.8559 185.068 Q 69.2007 185.068, 68.7092 184.844 Q 68.2264 184.611, 67.8384 184.145 L 68.3299 183.645 Q 68.7092 184.059, 69.0282 184.223 Q 69.3472 184.378, 69.8559 184.378 Q 70.4077 184.378, 70.7439 184.085 Q 71.0802 183.783, 71.0802 183.3 Q 71.0802 182.68, 70.7267 182.404 Q 70.3818 182.119, 69.6318 182.119 L 69.192 182.119 L 69.192 181.499 L 69.58 181.499 Q 70.2439 181.49, 70.5974 181.205 Q 70.9509 180.912, 70.9509 180.369 Q 70.9509 179.973, 70.6577 179.74 Q 70.3646 179.498, 69.8645 179.498 Q 69.3559 179.498, 69.0369 179.679 Q 68.7265 179.86, 68.4851 180.317 L 67.8902 179.998 Q 68.1057 179.49, 68.623 179.153 Q 69.1403 178.809, 69.8645 178.809 Q 70.7612 178.809, 71.2871 179.231 Q 71.813 179.654, 71.813 180.369 Q 71.813 180.861, 71.5458 181.214 Q 71.2785 181.568, 70.7698 181.766 " fill="#000000"/>
<path class="note" d="M 74.9168 181.171 Q 75.4514 181.171, 75.8738 181.404 Q 76.2963 181.636, 76.5291 182.059 Q 76.7619 182.481, 76.7619 183.016 Q 76.7619 183.611, 76.4946 184.076 Q 76.2359 184.533, 75.7704 184.792 Q 75.3048 185.051, 74.7099 185.051 Q 73.6236 185.051, 73.0718 184.318 Q 72.5286 183.576, 72.5286 182.111 Q 72.5286 180.49, 73.2011 179.654 Q 73.8822 178.809, 75.1841 178.809 Q 75.5635 178.809, 75.8825 178.895 Q 76.2101 178.981, 76.5205 179.162 L 76.1842 179.74 Q 75.7359 179.498, 75.1927 179.498 Q 74.3306 179.498, 73.8909 180.059 Q 73.4512 180.611, 73.3994 181.757 Q 73.7098 181.473, 74.0978 181.326 Q 74.4944 181.171, 74.9168 181.171 M 74.7185 184.344 Q 75.0462 184.344, 75.3134 184.171 Q 75.5893 183.999, 75.7445 183.697 Q 75.8997 183.395, 75.8997 183.025 Q 75.8997 182.481, 75.5979 182.171 Q 75.2962 181.861, 74.7616 181.861 Q 74.3909 181.861, 74.0202 182.016 Q 73.6581 182.162, 73.3994 182.421 Q 73.4339 183.43, 73.7529 183.887 Q 74.0719 184.344, 74.7185 184.344 " fill="#000000"/>
<path class="note" d="M 77.3223 184.12 L 78.1844 184.12 L 78.1844 184.982 L 77.3223 184.982 L 77.3223 184.12 " fill="#000000"/>
<path class="note" d="M 81.1589 181.171 Q 81.6935 181.171, 82.1159 181.404 Q 82.5384 181.636, 82.7712 182.059 Q 83.004 182.481, 83.004 183.016 Q 83.004 183.611, 82.7367 184.076 Q 82.478 184.533, 82.0125 184.792 Q 81.5469 185.051, 80.952 185.051 Q 79.8657 185.051, 79.3139 184.318 Q 78.7707 183.576, 78.7707 182.111 Q 78.7707 180.49, 79.4432 179.654 Q 80.1243 178.809, 81.4262 178.809 Q 81.8055 178.809, 82.1245 178.895 Q 82.4522 178.981, 82.7626 179.162 L 82.4263 179.74 Q 81.978 179.498, 81.4348 179.498 Q 80.5726 179.498, 80.1329 180.059 Q 79.6932 180.611, 79.6415 181.757 Q 79.9519 181.473, 80.3399 181.326 Q 80.7365 181.171, 81.1589 181.171 M 80.9606 184.344 Q 81.2882 184.344, 81.5555 184.171 Q 81.8314 183.999, 81.9866 183.697 Q 82.1418 183.395, 82.1418 183.025 Q 82.1418 182.481, 81.84 182.171 Q 81.5383 181.861, 81.0037 181.861 Q 80.633 181.861, 80.2623 182.016 Q 79.9002 182.162, 79.6415 182.421 Q 79.676 183.43, 79.995 183.887 Q 80.314 184.344, 80.9606 184.344 " fill="#000000"/>
<path class="note" d="M 28.0487 161.496 L 29.3851 161.496 L 29.3851 156.935 L 27.9108 157.392 L 27.7125 156.884 L 29.5834 156.047 L 30.1955 156.151 L 30.1955 161.496 L 31.3939 161.496 L 31.3939 162.186 L 28.0487 162.186 L 28.0487 161.496 " fill="#000000"/>
<path class="note" d="M 34.6874 158.97 Q 35.2823 159.143, 35.5668 159.531 Q 35.86 159.91, 35.86 160.513 Q 35.86 161.031, 35.6013 161.436 Q 35.3427 161.833, 34.8685 162.057 Q 34.3943 162.272, 33.7735 162.272 Q 33.1183 162.272, 32.6268 162.048 Q 32.144 161.815, 31.756 161.35 L 32.2475 160.85 Q 32.6268 161.264, 32.9458 161.427 Q 33.2648 161.583, 33.7735 161.583 Q 34.3253 161.583, 34.6615 161.289 Q 34.9978 160.988, 34.9978 160.505 Q 34.9978 159.884, 34.6443 159.608 Q 34.2994 159.324, 33.5493 159.324 L 33.1096 159.324 L 33.1096 158.703 L 33.4976 158.703 Q 34.1615 158.694, 34.515 158.41 Q 34.8685 158.117, 34.8685 157.573 Q 34.8685 157.177, 34.5753 156.944 Q 34.2822 156.703, 33.7821 156.703 Q 33.2735 156.703, 32.9545 156.884 Q 32.6441 157.065, 32.4027 157.522 L 31.8078 157.203 Q 32.0233 156.694, 32.5406 156.358 Q 33.0579 156.013, 33.7821 156.013 Q 34.6788 156.013, 35.2047 156.435 Q 35.7306 156.858, 35.7306 157.573 Q 35.7306 158.065, 35.4634 158.418 Q 35.1961 158.772, 34.6874 158.97 " fill="#000000"/>
<path class="note" d="M 36.6618 161.496 L 37.9981 161.496 L 37.9981 156.935 L 36.5238 157.392 L 36.3255 156.884 L 38.1964 156.047 L 38.8086 156.151 L 38.8086 161.496 L 40.007 161.496 L 40.007 162.186 L 36.6618 162.186 L 36.6618 161.496 " fill="#000000"/>
<path class="note" d="M 40.5674 161.324 L 41.4296 161.324 L 41.4296 162.186 L 40.5674 162.186 L 40.5674 161.324 " fill="#000000"/>
<path class="note" d="M 44.723 158.97 Q 45.3179 159.143, 45.6024 159.531 Q 45.8956 159.91, 45.8956 160.513 Q 45.8956 161.031, 45.6369 161.436 Q 45.3783 161.833, 44.9041 162.057 Q 44.4299 162.272, 43.8091 162.272 Q 43.1539 162.272, 42.6624 162.048 Q 42.1796 161.815, 41.7917 161.35 L 42.2831 160.85 Q 42.6624 161.264, 42.9815 161.427 Q 43.3005 161.583, 43.8091 161.583 Q 44.3609 161.583, 44.6972 161.289 Q 45.0334 160.988, 45.0334 160.505 Q 45.0334 159.884, 44.6799 159.608 Q 44.3351 159.324, 43.585 159.324 L 43.1453 159.324 L 43.1453 158.703 L 43.5332 158.703 Q 44.1971 158.694, 44.5506 158.41 Q 44.9041 158.117, 44.9041 157.573 Q 44.9041 157.177, 44.6109 156.944 Q 44.3178 156.703, 43.8178 156.703 Q 43.3091 156.703, 42.9901 156.884 Q 42.6797 157.065, 42.4383 157.522 L 41.8434 157.203 Q 42.0589 156.694, 42.5762 156.358 Q 43.0935 156.013, 43.8178 156.013 Q 44.7144 156.013, 45.2403 156.435 Q 45.7662 156.858, 45.7662 157.573 Q 45.7662 158.065, 45.499 158.418 Q 45.2317 158.772, 44.723 158.97 " fill="#000000"/>
<path class="note" d="M 80.0453 84.1804 L 81.3816 84.1804 L 81.3816 79.6196 L 79.9073 80.0765 L 79.709 79.5679 L 81.5799 78.7316 L 82.1921 78.835 L 82.1921 84.1804 L 83.3905 84.1804 L 83.3905 84.8702 L 80.0453 84.8702 L 80.0453 84.1804 " fill="#000000"/>
<path class="note" d="M 83.8388 79.9213 Q 84.063 79.3437, 84.5975 79.0247 Q 85.1321 78.6971, 85.8735 78.6971 Q 86.796 78.6971, 87.3133 79.1971 Q 87.8306 79.6972, 87.8306 80.5852 Q 87.8306 81.4905, 87.1582 82.3354 Q 86.4943 83.1803, 85.1148 84.1804 L 87.9341 84.1804 L 87.9341 84.8702 L 83.8216 84.8702 L 83.8216 84.2925 Q 84.9596 83.4821, 85.6321 82.8786 Q 86.3132 82.2751, 86.6409 81.7319 Q 86.9685 81.1887, 86.9685 80.6283 Q 86.9685 80.042, 86.6753 79.7144 Q 86.3822 79.3868, 85.8735 79.3868 Q 85.3821 79.3868, 85.0545 79.5851 Q 84.7268 79.7834, 84.4941 80.2231 L 83.8388 79.9213 " fill="#000000"/>
<path class="note" d="M 90.4603 78.6971 Q 91.5466 78.6971, 92.0897 79.4385 Q 92.6415 80.1714, 92.6415 81.6371 Q 92.6415 83.2579, 91.9604 84.1029 Q 91.2879 84.9392, 89.9861 84.9392 Q 89.6067 84.9392, 89.2791 84.8529 Q 88.9601 84.7667, 88.6497 84.5857 L 88.9859 84.008 Q 89.4343 84.2494, 89.9774 84.2494 Q 90.8396 84.2494, 91.2793 83.6976 Q 91.719 83.1372, 91.7707 81.9905 Q 91.4604 82.2751, 91.0638 82.4302 Q 90.6758 82.5768, 90.2533 82.5768 Q 89.7188 82.5768, 89.2963 82.344 Q 88.8739 82.1112, 88.6411 81.6888 Q 88.4083 81.2663, 88.4083 80.7318 Q 88.4083 80.1369, 88.6669 79.6799 Q 88.9342 79.2144, 89.3998 78.9557 Q 89.8654 78.6971, 90.4603 78.6971 M 89.2705 80.7232 Q 89.2705 81.2663, 89.5722 81.5767 Q 89.874 81.8871, 90.4085 81.8871 Q 90.7793 81.8871, 91.1414 81.7405 Q 91.5121 81.5853, 91.7707 81.3267 Q 91.7363 80.3179, 91.4173 79.861 Q 91.0983 79.404, 90.4516 79.404 Q 90.124 79.404, 89.8481 79.5765 Q 89.5808 79.7489, 89.4257 80.0507 Q 89.2705 80.3524, 89.2705 80.7232 " fill="#000000"/>
<path class="note" d="M 93.2019 84.008 L 94.0641 84.008 L 94.0641 84.8702 L 93.2019 84.8702 L 93.2019 84.008 " fill="#000000"/>
<path class="note" d="M 96.6765 81.0508 Q 97.211 81.0508, 97.6507 81.2836 Q 98.0904 81.5077, 98.3405 81.9388 Q 98.5905 82.3613, 98.5905 82.9389 Q 98.5905 83.5683, 98.2801 84.0253 Q 97.9783 84.4736, 97.4783 84.7064 Q 96.9782 84.9392, 96.4092 84.9392 Q 95.8488 84.9392, 95.3315 84.7322 Q 94.8142 84.5253, 94.4607 84.1287 L 94.978 83.5942 Q 95.2625 83.9046, 95.6505 84.077 Q 96.0385 84.2408, 96.4351 84.2408 Q 96.9782 84.2408, 97.349 83.9046 Q 97.7283 83.5683, 97.7283 82.9562 Q 97.7283 82.3095, 97.349 82.0078 Q 96.9782 81.6974, 96.3833 81.6974 Q 95.8488 81.6974, 95.2539 81.9302 L 94.7797 81.706 L 95.0728 78.766 L 98.2111 78.766 L 98.1249 79.4558 L 95.7798 79.4558 L 95.5988 81.2663 Q 96.1419 81.0508, 96.6765 81.0508 " fill="#000000"/>
<path class="note" d="M 116.855 99.7954 L 118.192 99.7954 L 118.192 95.2346 L 116.717 95.6915 L 116.519 95.1828 L 118.39 94.3465 L 119.002 94.45 L 119.002 99.7954 L 120.2 99.7954 L 120.2 100.485 L 116.855 100.485 L 116.855 99.7954 " fill="#000000"/>
<path class="note" d="M 123.494 97.2693 Q 124.089 97.4417, 124.373 97.8297 Q 124.666 98.2091, 124.666 98.8126 Q 124.666 99.3299, 124.408 99.7351 Q 124.149 100.132, 123.675 100.356 Q 123.201 100.571, 122.58 100.571 Q 121.925 100.571, 121.433 100.347 Q 120.951 100.114, 120.563 99.6489 L 121.054 99.1488 Q 121.433 99.5627, 121.752 99.7265 Q 122.071 99.8817, 122.58 99.8817 Q 123.132 99.8817, 123.468 99.5885 Q 123.804 99.2868, 123.804 98.8039 Q 123.804 98.1832, 123.451 97.9073 Q 123.106 97.6228, 122.356 97.6228 L 121.916 97.6228 L 121.916 97.002 L 122.304 97.002 Q 122.968 96.9934, 123.321 96.7089 Q 123.675 96.4157, 123.675 95.8726 Q 123.675 95.476, 123.382 95.2432 Q 123.089 95.0018, 122.589 95.0018 Q 122.08 95.0018, 121.761 95.1828 Q 121.451 95.3639, 121.209 95.8209 L 120.614 95.5018 Q 120.83 94.9932, 121.347 94.6569 Q 121.864 94.3121, 122.589 94.3121 Q 123.485 94.3121, 124.011 94.7345 Q 124.537 95.157, 124.537 95.8726 Q 124.537 96.364, 124.27 96.7175 Q 124.003 97.071, 123.494 97.2693 " fill="#000000"/>
<path class="note" d="M 128.313 97.252 Q 128.874 97.4935, 129.193 97.8556 Q 129.512 98.2091, 129.512 98.8126 Q 129.512 99.3299, 129.245 99.7351 Q 128.977 100.132, 128.494 100.356 Q 128.02 100.571, 127.391 100.571 Q 126.374 100.571, 125.787 100.106 Q 125.201 99.6316, 125.201 98.8126 Q 125.201 98.3125, 125.46 97.9418 Q 125.718 97.5624, 126.253 97.2779 Q 125.856 97.0537, 125.641 96.7261 Q 125.425 96.3899, 125.425 95.8726 Q 125.425 95.157, 125.942 94.7345 Q 126.468 94.3121, 127.356 94.3121 Q 128.244 94.3121, 128.762 94.7345 Q 129.288 95.157, 129.288 95.8726 Q 129.288 96.3209, 129.038 96.6572 Q 128.796 96.9848, 128.313 97.252 M 127.356 94.9587 Q 126.848 94.9587, 126.563 95.2001 Q 126.287 95.4415, 126.287 95.8726 Q 126.287 96.1916, 126.477 96.4071 Q 126.667 96.614, 126.934 96.7347 Q 127.21 96.8555, 127.736 97.0365 Q 128.106 96.7779, 128.262 96.502 Q 128.425 96.2261, 128.425 95.8726 Q 128.425 95.4415, 128.141 95.2001 Q 127.865 94.9587, 127.356 94.9587 M 127.391 99.9248 Q 127.96 99.9248, 128.305 99.623 Q 128.65 99.3126, 128.65 98.8039 Q 128.65 98.4763, 128.469 98.2694 Q 128.288 98.0625, 128.012 97.9418 Q 127.744 97.8211, 127.262 97.6659 L 126.874 97.5366 Q 126.443 97.7952, 126.253 98.1056 Q 126.063 98.4074, 126.063 98.8039 Q 126.063 99.3126, 126.425 99.623 Q 126.787 99.9248, 127.391 99.9248 " fill="#000000"/>
<path class="note" d="M 130.072 99.623 L 130.934 99.623 L 130.934 100.485 L 130.072 100.485 L 130.072 99.623 " fill="#000000"/>
<path class="note" d="M 134.228 97.2693 Q 134.823 97.4417, 135.107 97.8297 Q 135.4 98.2091, 135.4 98.8126 Q 135.4 99.3299, 135.142 99.7351 Q 134.883 100.132, 134.409 100.356 Q 133.935 100.571, 133.314 100.571 Q 132.659 100.571, 132.167 100.347 Q 131.684 100.114, 131.297 99.6489 L 131.788 99.1488 Q 132.167 99.5627, 132.486 99.7265 Q 132.805 99.8817, 133.314 99.8817 Q 133.866 99.8817, 134.202 99.5885 Q 134.538 99.2868, 134.538 98.8039 Q 134.538 98.1832, 134.185 97.9073 Q 133.84 97.6228, 133.09 97.6228 L 132.65 97.6228 L 132.65 97.002 L 133.038 97.002 Q 133.702 96.9934, 134.055 96.7089 Q 134.409 96.4157, 134.409 95.8726 Q 134.409 95.476, 134.116 95.2432 Q 133.823 95.0018, 133.323 95.0018 Q 132.814 95.0018, 132.495 95.1828 Q 132.185 95.3639, 131.943 95.8209 L 131.348 95.5018 Q 131.564 94.9932, 132.081 94.6569 Q 132.598 94.3121, 133.323 94.3121 Q 134.219 94.3121, 134.745 94.7345 Q 135.271 95.157, 135.271 95.8726 Q 135.271 96.364, 135.004 96.7175 Q 134.737 97.071, 134.228 97.2693 " fill="#000000"/>
<path class="note" d="M 158.405 83.5581 Q 158.939 83.5581, 159.379 83.7909 Q 159.819 84.015, 160.069 84.4461 Q 160.319 84.8686, 160.319 85.4462 Q 160.319 86.0756, 160.008 86.5326 Q 159.706 86.9809, 159.206 87.2137 Q 158.706 87.4465, 158.137 87.4465 Q 157.577 87.4465, 157.06 87.2395 Q 156.542 87.0326, 156.189 86.636 L 156.706 86.1015 Q 156.991 86.4119, 157.379 86.5843 Q 157.767 86.7481, 158.163 86.7481 Q 158.706 86.7481, 159.077 86.4119 Q 159.456 86.0756, 159.456 85.4635 Q 159.456 84.8168, 159.077 84.5151 Q 158.706 84.2047, 158.111 84.2047 Q 157.577 84.2047, 156.982 84.4375 L 156.508 84.2133 L 156.801 81.2733 L 159.939 81.2733 L 159.853 81.9631 L 157.508 81.9631 L 157.327 83.7736 Q 157.87 83.5581, 158.405 83.5581 " fill="#000000"/>
<path class="note" d="M 163.293 83.5667 Q 163.828 83.5667, 164.25 83.7995 Q 164.673 84.0323, 164.905 84.4547 Q 165.138 84.8772, 165.138 85.4117 Q 165.138 86.0066, 164.871 86.4722 Q 164.612 86.9292, 164.147 87.1878 Q 163.681 87.4465, 163.086 87.4465 Q 162 87.4465, 161.448 86.7136 Q 160.905 85.9722, 160.905 84.5065 Q 160.905 82.8856, 161.577 82.0493 Q 162.258 81.2044, 163.56 81.2044 Q 163.94 81.2044, 164.259 81.2906 Q 164.586 81.3768, 164.897 81.5579 L 164.56 82.1355 Q 164.112 81.8941, 163.569 81.8941 Q 162.707 81.8941, 162.267 82.4545 Q 161.827 83.0063, 161.776 84.153 Q 162.086 83.8685, 162.474 83.7219 Q 162.871 83.5667, 163.293 83.5667 M 163.095 86.7395 Q 163.422 86.7395, 163.69 86.567 Q 163.966 86.3946, 164.121 86.0929 Q 164.276 85.7911, 164.276 85.4204 Q 164.276 84.8772, 163.974 84.5668 Q 163.672 84.2564, 163.138 84.2564 Q 162.767 84.2564, 162.396 84.4116 Q 162.034 84.5582, 161.776 84.8168 Q 161.81 85.8256, 162.129 86.2825 Q 162.448 86.7395, 163.095 86.7395 " fill="#000000"/>
<path class="note" d="M 165.698 86.5153 L 166.561 86.5153 L 166.561 87.3775 L 165.698 87.3775 L 165.698 86.5153 " fill="#000000"/>
<path class="note" d="M 167.009 82.4286 Q 167.233 81.851, 167.768 81.532 Q 168.302 81.2044, 169.044 81.2044 Q 169.966 81.2044, 170.484 81.7044 Q 171.001 82.2045, 171.001 83.0925 Q 171.001 83.9978, 170.328 84.8427 Q 169.664 85.6876, 168.285 86.6877 L 171.104 86.6877 L 171.104 87.3775 L 166.992 87.3775 L 166.992 86.7998 Q 168.13 85.9894, 168.802 85.3859 Q 169.483 84.7824, 169.811 84.2392 Q 170.139 83.696, 170.139 83.1356 Q 170.139 82.5493, 169.846 82.2217 Q 169.552 81.8941, 169.044 81.8941 Q 168.552 81.8941, 168.225 82.0924 Q 167.897 82.2907, 167.664 82.7304 L 167.009 82.4286 " fill="#000000"/>
<path class="note" d="M 232.764 93.4891 L 234.101 93.4891 L 234.101 88.9282 L 232.626 89.3852 L 232.428 88.8765 L 234.299 88.0402 L 234.911 88.1436 L 234.911 93.4891 L 236.11 93.4891 L 236.11 94.1788 L 232.764 94.1788 L 232.764 93.4891 " fill="#000000"/>
<path class="note" d="M 236.911 93.4891 L 238.248 93.4891 L 238.248 88.9282 L 236.773 89.3852 L 236.575 88.8765 L 238.446 88.0402 L 239.058 88.1436 L 239.058 93.4891 L 240.257 93.4891 L 240.257 94.1788 L 236.911 94.1788 L 236.911 93.4891 " fill="#000000"/>
<path class="note" d="M 243.904 90.9457 Q 244.464 91.1871, 244.783 91.5492 Q 245.102 91.9027, 245.102 92.5062 Q 245.102 93.0235, 244.835 93.4287 Q 244.567 93.8253, 244.085 94.0495 Q 243.61 94.265, 242.981 94.265 Q 241.964 94.265, 241.377 93.7995 Q 240.791 93.3253, 240.791 92.5062 Q 240.791 92.0062, 241.05 91.6354 Q 241.308 91.2561, 241.843 90.9716 Q 241.446 90.7474, 241.231 90.4198 Q 241.015 90.0835, 241.015 89.5662 Q 241.015 88.8506, 241.533 88.4282 Q 242.058 88.0057, 242.946 88.0057 Q 243.835 88.0057, 244.352 88.4282 Q 244.878 88.8506, 244.878 89.5662 Q 244.878 90.0145, 244.628 90.3508 Q 244.386 90.6784, 243.904 90.9457 M 242.946 88.6523 Q 242.438 88.6523, 242.153 88.8937 Q 241.877 89.1351, 241.877 89.5662 Q 241.877 89.8852, 242.067 90.1008 Q 242.257 90.3077, 242.524 90.4284 Q 242.8 90.5491, 243.326 90.7301 Q 243.697 90.4715, 243.852 90.1956 Q 244.016 89.9197, 244.016 89.5662 Q 244.016 89.1351, 243.731 88.8937 Q 243.455 88.6523, 242.946 88.6523 M 242.981 93.6184 Q 243.55 93.6184, 243.895 93.3166 Q 244.24 93.0063, 244.24 92.4976 Q 244.24 92.17, 244.059 91.963 Q 243.878 91.7561, 243.602 91.6354 Q 243.334 91.5147, 242.852 91.3595 L 242.464 91.2302 Q 242.033 91.4889, 241.843 91.7992 Q 241.653 92.101, 241.653 92.4976 Q 241.653 93.0063, 242.015 93.3166 Q 242.377 93.6184, 242.981 93.6184 " fill="#000000"/>
<path class="note" d="M 245.662 93.3166 L 246.524 93.3166 L 246.524 94.1788 L 245.662 94.1788 L 245.662 93.3166 " fill="#000000"/>
<path class="note" d="M 249.499 90.368 Q 250.034 90.368, 250.456 90.6008 Q 250.878 90.8336, 251.111 91.2561 Q 251.344 91.6785, 251.344 92.2131 Q 251.344 92.808, 251.077 93.2735 Q 250.818 93.7305, 250.353 93.9891 Q 249.887 94.2478, 249.292 94.2478 Q 248.206 94.2478, 247.654 93.5149 Q 247.111 92.7735, 247.111 91.3078 Q 247.111 89.6869, 247.783 88.8506 Q 248.464 88.0057, 249.766 88.0057 Q 250.146 88.0057, 250.465 88.0919 Q 250.792 88.1781, 251.103 88.3592 L 250.766 88.9368 Q 250.318 88.6954, 249.775 88.6954 Q 248.913 88.6954, 248.473 89.2558 Q 248.033 89.8076, 247.982 90.9543 Q 248.292 90.6698, 248.68 90.5232 Q 249.077 90.368, 249.499 90.368 M 249.301 93.5408 Q 249.628 93.5408, 249.896 93.3684 Q 250.171 93.1959, 250.327 92.8942 Q 250.482 92.5924, 250.482 92.2217 Q 250.482 91.6785, 250.18 91.3681 Q 249.878 91.0578, 249.344 91.0578 Q 248.973 91.0578, 248.602 91.213 Q 248.24 91.3595, 247.982 91.6182 Q 248.016 92.6269, 248.335 93.0839 Q 248.654 93.5408, 249.301 93.5408 " fill="#000000"/>
<path class="note" d="M 264.225 120.214 L 265.562 120.214 L 265.562 115.654 L 264.087 116.111 L 263.889 115.602 L 265.76 114.766 L 266.372 114.869 L 266.372 120.214 L 267.57 120.214 L 267.57 120.904 L 264.225 120.904 L 264.225 120.214 " fill="#000000"/>
<path class="note" d="M 268.019 115.955 Q 268.243 115.378, 268.777 115.059 Q 269.312 114.731, 270.053 114.731 Q 270.976 114.731, 271.493 115.231 Q 272.011 115.731, 272.011 116.619 Q 272.011 117.524, 271.338 118.369 Q 270.674 119.214, 269.295 120.214 L 272.114 120.214 L 272.114 120.904 L 268.001 120.904 L 268.001 120.327 Q 269.14 119.516, 269.812 118.913 Q 270.493 118.309, 270.821 117.766 Q 271.148 117.223, 271.148 116.662 Q 271.148 116.076, 270.855 115.748 Q 270.562 115.421, 270.053 115.421 Q 269.562 115.421, 269.234 115.619 Q 268.907 115.817, 268.674 116.257 L 268.019 115.955 " fill="#000000"/>
<path class="note" d="M 275.761 117.671 Q 276.321 117.912, 276.64 118.275 Q 276.959 118.628, 276.959 119.232 Q 276.959 119.749, 276.692 120.154 Q 276.425 120.551, 275.942 120.775 Q 275.468 120.99, 274.838 120.99 Q 273.821 120.99, 273.235 120.525 Q 272.649 120.051, 272.649 119.232 Q 272.649 118.731, 272.907 118.361 Q 273.166 117.981, 273.7 117.697 Q 273.304 117.473, 273.088 117.145 Q 272.873 116.809, 272.873 116.292 Q 272.873 115.576, 273.39 115.154 Q 273.916 114.731, 274.804 114.731 Q 275.692 114.731, 276.209 115.154 Q 276.735 115.576, 276.735 116.292 Q 276.735 116.74, 276.485 117.076 Q 276.244 117.404, 275.761 117.671 M 274.804 115.378 Q 274.295 115.378, 274.011 115.619 Q 273.735 115.86, 273.735 116.292 Q 273.735 116.611, 273.925 116.826 Q 274.114 117.033, 274.382 117.154 Q 274.657 117.274, 275.183 117.455 Q 275.554 117.197, 275.709 116.921 Q 275.873 116.645, 275.873 116.292 Q 275.873 115.86, 275.589 115.619 Q 275.313 115.378, 274.804 115.378 M 274.838 120.344 Q 275.408 120.344, 275.752 120.042 Q 276.097 119.732, 276.097 119.223 Q 276.097 118.895, 275.916 118.688 Q 275.735 118.481, 275.459 118.361 Q 275.192 118.24, 274.709 118.085 L 274.321 117.956 Q 273.89 118.214, 273.7 118.525 Q 273.511 118.826, 273.511 119.223 Q 273.511 119.732, 273.873 120.042 Q 274.235 120.344, 274.838 120.344 " fill="#000000"/>
<path class="note" d="M 277.52 120.042 L 278.382 120.042 L 278.382 120.904 L 277.52 120.904 L 277.52 120.042 " fill="#000000"/>
<path class="note" d="M 280.994 117.085 Q 281.529 117.085, 281.969 117.318 Q 282.408 117.542, 282.658 117.973 Q 282.908 118.395, 282.908 118.973 Q 282.908 119.602, 282.598 120.059 Q 282.296 120.508, 281.796 120.74 Q 281.296 120.973, 280.727 120.973 Q 280.167 120.973, 279.649 120.766 Q 279.132 120.559, 278.779 120.163 L 279.296 119.628 Q 279.58 119.939, 279.968 120.111 Q 280.356 120.275, 280.753 120.275 Q 281.296 120.275, 281.667 119.939 Q 282.046 119.602, 282.046 118.99 Q 282.046 118.344, 281.667 118.042 Q 281.296 117.731, 280.701 117.731 Q 280.167 117.731, 279.572 117.964 L 279.098 117.74 L 279.391 114.8 L 282.529 114.8 L 282.443 115.49 L 280.098 115.49 L 279.917 117.3 Q 280.46 117.085, 280.994 117.085 " fill="#000000"/>
<path class="note" d="M 238.566 176.695 L 239.903 176.695 L 239.903 172.134 L 238.428 172.591 L 238.23 172.082 L 240.101 171.246 L 240.713 171.35 L 240.713 176.695 L 241.911 176.695 L 241.911 177.385 L 238.566 177.385 L 238.566 176.695 " fill="#000000"/>
<path class="note" d="M 242.36 172.436 Q 242.584 171.858, 243.119 171.539 Q 243.653 171.212, 244.395 171.212 Q 245.317 171.212, 245.834 171.712 Q 246.352 172.212, 246.352 173.1 Q 246.352 174.005, 245.679 174.85 Q 245.015 175.695, 243.636 176.695 L 246.455 176.695 L 246.455 177.385 L 242.343 177.385 L 242.343 176.807 Q 243.481 175.997, 244.153 175.393 Q 244.834 174.79, 245.162 174.246 Q 245.489 173.703, 245.489 173.143 Q 245.489 172.557, 245.196 172.229 Q 244.903 171.901, 244.395 171.901 Q 243.903 171.901, 243.575 172.1 Q 243.248 172.298, 243.015 172.738 L 242.36 172.436 " fill="#000000"/>
<path class="note" d="M 249.067 173.565 Q 249.602 173.565, 250.042 173.798 Q 250.481 174.022, 250.731 174.453 Q 250.981 174.876, 250.981 175.454 Q 250.981 176.083, 250.671 176.54 Q 250.369 176.988, 249.869 177.221 Q 249.369 177.454, 248.8 177.454 Q 248.24 177.454, 247.722 177.247 Q 247.205 177.04, 246.852 176.643 L 247.369 176.109 Q 247.654 176.419, 248.041 176.592 Q 248.429 176.755, 248.826 176.755 Q 249.369 176.755, 249.74 176.419 Q 250.119 176.083, 250.119 175.471 Q 250.119 174.824, 249.74 174.522 Q 249.369 174.212, 248.774 174.212 Q 248.24 174.212, 247.645 174.445 L 247.171 174.221 L 247.464 171.281 L 250.602 171.281 L 250.516 171.97 L 248.171 171.97 L 247.99 173.781 Q 248.533 173.565, 249.067 173.565 " fill="#000000"/>
<path class="note" d="M 251.542 176.523 L 252.404 176.523 L 252.404 177.385 L 251.542 177.385 L 251.542 176.523 " fill="#000000"/>
<path class="note" d="M 256.629 175.29 L 257.362 175.29 L 257.362 175.979 L 256.629 175.979 L 256.629 177.385 L 255.818 177.385 L 255.818 175.979 L 252.663 175.979 L 252.663 175.436 L 255.335 171.281 L 256.629 171.281 L 256.629 175.29 M 253.663 175.29 L 255.818 175.29 L 255.818 171.832 L 253.663 175.29 " fill="#000000"/>
</svg>